<svg class="hexa" viewBox="148.06 3.96 249.01312849162008 834.03" data-name="Calque 1" id="Calque_1" xmlns:xlink="http://www.w3.org/1999/xlink" xmlns="http://www.w3.org/2000/svg" width="249.01312849162008" height="834.03">
        <defs>
            <style>
            .cls-1 {
                fill: none;
            }

            .cls-2 {
                clip-path: url(#clippath-1);
            }

            .cls-3 {
                opacity: .12;
            }

            .cls-3, .cls-4 {
                fill: #709ca7;
                isolation: isolate;
            }

            .cls-4 {
                opacity: .17;
            }

            .cls-5 {
                clip-path: url(#clippath);
            }
            </style>
            <clipPath id="clippath">
            <rect height="841.945" width="246.7778" x="147.2222" class="cls-1"/>
            </clipPath>
            <clipPath id="clippath-1">
            <rect height="841.89" width="595.276" y=".0275" class="cls-1"/>
            </clipPath>
        </defs>
        <g class="cls-5">
            <g class="cls-2">
            <g>
                <path d="M236.528,265.3445h-58.976l-29.488,51.074,29.488,51.075h58.976l29.488-51.075-29.488-51.074Z" class="cls-3"/>
                <path d="M236.528,369.8975h-58.976l-29.488,51.075,29.488,51.074h58.976l29.488-51.074-29.488-51.075Z" class="cls-4"/>
                <path d="M236.528,474.4515h-58.976l-29.488,51.075,29.488,51.074h58.976l29.488-51.074-29.488-51.075Z" class="cls-3"/>
                <path d="M236.528,579.0055h-58.976l-29.488,51.075,29.488,51.074h58.976l29.488-51.074-29.488-51.075Z" class="cls-4"/>
                <path d="M236.528,160.7905h-58.976l-29.488,51.074,29.488,51.075h58.976l29.488-51.075-29.488-51.074Z" class="cls-4"/>
                <path d="M236.528,56.2365h-58.976l-29.488,51.075,29.488,51.074h58.976l29.488-51.074-29.488-51.075Z" class="cls-3"/>
                <path d="M326.637,317.6215h-58.976l-29.488,51.074,29.488,51.075h58.976l29.488-51.075-29.488-51.074Z" class="cls-4"/>
                <path d="M326.637,422.1745h-58.976l-29.488,51.075,29.488,51.074h58.976l29.488-51.074-29.488-51.075Z" class="cls-3"/>
                <path d="M326.637,526.7285h-58.976l-29.488,51.075,29.488,51.074h58.976l29.488-51.074-29.488-51.075Z" class="cls-4"/>
                <path d="M326.637,631.2825h-58.976l-29.488,51.074,29.488,51.075h58.976l29.488-51.075-29.488-51.074Z" class="cls-3"/>
                <path d="M326.637,213.0675h-58.976l-29.488,51.074,29.488,51.075h58.976l29.488-51.075-29.488-51.074Z" class="cls-3"/>
                <path d="M326.637,108.5135h-58.976l-29.488,51.074,29.488,51.075h58.976l29.488-51.075-29.488-51.074Z" class="cls-4"/>
                <path d="M417.724,369.8975h-58.976l-29.488,51.075,29.488,51.074h58.976l29.487-51.074-29.487-51.075Z" class="cls-3"/>
                <path d="M417.724,474.4515h-58.976l-29.488,51.075,29.488,51.074h58.976l29.487-51.074-29.487-51.075Z" class="cls-4"/>
                <path d="M417.724,579.0055h-58.976l-29.488,51.075,29.488,51.074h58.976l29.487-51.074-29.487-51.075Z" class="cls-3"/>
                <path d="M417.723,683.5595h-58.975l-29.488,51.074,29.488,51.075h58.975l29.488-51.075-29.488-51.074Z" class="cls-4"/>
                <path d="M417.724,265.3445h-58.976l-29.488,51.074,29.488,51.075h58.976l29.488-51.075-29.488-51.074Z" class="cls-4"/>
                <path d="M417.724,160.7905h-58.976l-29.488,51.074,29.488,51.075h58.976l29.488-51.075-29.488-51.074Z" class="cls-3"/>
                <path d="M326.637,735.8365h-58.976l-29.488,51.074,29.488,51.075h58.976l29.488-51.075-29.488-51.074Z" class="cls-4"/>
                <path d="M236.528,683.5595h-58.976l-29.488,51.074,29.488,51.075h58.976l29.488-51.075-29.488-51.074Z" class="cls-3"/>
                <path d="M326.637,3.9596h-58.976l-29.488,51.0745,29.488,51.0743h58.976l29.488-51.0743-29.488-51.0745Z" class="cls-3"/>
                <path d="M417.724,56.2365h-58.976l-29.488,51.075,29.488,51.074h58.976l29.488-51.074-29.488-51.075Z" class="cls-4"/>
            </g>
            </g>
        </g>
        </svg>