<svg width="747" height="577" viewBox="0 0 747 577" fill="none" xmlns="http://www.w3.org/2000/svg">
<g opacity="0.3" clip-path="url(#clip0_169_263)">
<path d="M747.005 53.1792L617.278 17.1832L555.371 0.00610352L516.517 18.016L476.155 36.7249L434.16 56.1911L390.449 76.4526L344.915 97.5593L409.133 118.546L544.525 162.792L544.526 162.792L531.337 405.384L571.276 379.163L588.544 138.949L588.523 138.961L454.234 96.582L497.495 75.5149L630.69 116.153L630.691 116.153L609.682 353.947L646.644 329.68L671.089 94.2709L671.066 94.2825L539.025 55.2906L578.91 35.8671L709.82 73.3224L709.821 73.322L682.225 306.319L716.53 283.795L747.027 53.1676L747.005 53.1792Z" fill="#C6C6C6"/>
<path d="M461.401 207.78L400.127 186.406C295.039 149.75 207.121 149.683 127.497 186.196L0.01297 244.657L221.674 337.543L242.16 577.004L353.622 504.696C423.445 459.4 457.964 377.33 460.642 245.498L461.409 207.777L461.401 207.78ZM354.336 426.794L290.364 466.063L281.011 305.42L281.005 305.423L122.977 242.109L193.052 208.435C234.96 188.297 282.4 188.297 337.928 208.435L411.143 234.989L411.191 287.908C411.255 358.26 392.631 403.287 354.336 426.794Z" fill="#C6C6C6"/>
</g>
<defs>
<clipPath id="clip0_169_263">
<rect width="747" height="577" fill="white"/>
</clipPath>
</defs>
</svg>
