<?xml version="1.0" encoding="UTF-8"?>
<svg id="Calque_1" xmlns="http://www.w3.org/2000/svg" version="1.1" xmlns:xlink="http://www.w3.org/1999/xlink" viewBox="0 0 747 577">
  <!-- Generator: Adobe Illustrator 30.1.0, SVG Export Plug-In . SVG Version: 2.1.1 Build 136)  -->
  <defs>
    <style>
      .st0 {
        fill: none;
      }

      .st1 {
        opacity: .3;
      }

      .st2 {
        fill: #c6c6c6;
      }

      .st3 {
        clip-path: url(#clippath);
      }
    </style>
    <clipPath id="clippath">
      <rect class="st0" y="0" width="747" height="577"/>
    </clipPath>
  </defs>
  <g class="st3">
    <g class="st1">
      <path class="st2" d="M747,53.2l-129.7-36L555.4,0l-38.9,18-40.4,18.7-42,19.5-43.7,20.3-45.5,21.1,64.2,21,135.4,44.2h0l-13.2,242.6,39.9-26.2,17.3-240.2h0s-134.3-42.4-134.3-42.4l43.3-21.1,133.2,40.6h0l-21,237.8,37-24.3,24.4-235.4h0s-132-39-132-39l39.9-19.4,130.9,37.5h0s-27.6,233-27.6,233l34.3-22.5,30.5-230.6h0Z"/>
      <path class="st2" d="M461.4,207.8l-61.3-21.4c-105.1-36.7-193-36.7-272.6-.2L0,244.7l221.7,92.9,20.5,239.5,111.5-72.3c69.8-45.3,104.3-127.4,107-259.2l.8-37.7h0ZM354.3,426.8l-64,39.3-9.4-160.6h0s-158-63.3-158-63.3l70.1-33.7c41.9-20.1,89.3-20.1,144.9,0l73.2,26.6v52.9c.1,70.4-18.5,115.4-56.8,138.9Z"/>
    </g>
  </g>
  <line class="st0" x1="242.2" y1="577" x2="202.3" y2="330.5"/>
</svg>